<?xml version="1.0" encoding="UTF-8"?>
<svg id="Layer_1" xmlns="http://www.w3.org/2000/svg" version="1.1" viewBox="0 0 2000 2000">
  <!-- Generator: Adobe Illustrator 29.3.1, SVG Export Plug-In . SVG Version: 2.1.0 Build 151)  -->
  <defs>
    <style>
      .st0 {
        fill: #fff;
      }

      .st1 {
        fill: #155dfc;
      }
    </style>
  </defs>
  <rect class="st1" width="2000" height="2000" rx="255" ry="255"/>
  <g>
    <path class="st0" d="M245.2,1258.9l232.6-488.2c17.9-37.1,60.2-41.1,92.1-18.9l169.1,350c38.5,82.7,140.8,83.4,219.5,76.3,219.1-19.9,194.2-359.1-13.5-359.1h-165.8v-80.3h183.2c130.9,0,235.3,135.9,235.9,260,1,217.8-198.7,287.3-385,255.5-167.2-28.5-193.1-253.6-268.5-377.2l-15.2-26.6-186.1,389.8c-1.4,3.8-15.2,18.5-16.4,18.5h-82Z"/>
    <path class="st0" d="M1369.1,738.9h225.1c102.6,0,175.4,116.6,123.3,207.1-9.6,16.7-24.8,24.8-34.3,38.9,99.9,55.9,93.8,205.9-9.2,256.2-12.6,6.1-49.6,17.9-62.4,17.9h-237.3l-5.2-5.2v-514.8ZM1452.8,951.8h144.8c2.6,0,21.4-7.6,25.2-9.7,29.9-17.3,33.6-70.5,15-96.7-5.9-8.3-31.1-26.2-40.2-26.2h-143.1c-7.9,4.9-1.7,7.5-1.7,8.7v123.9ZM1452.8,1178.6h162.3c2.3,0,22.4-10,25.9-12.4,36.6-25.4,38.5-87.5,5.6-116.8-7.5-6.6-33.2-20.8-42-20.8h-150.1c-7.9,4.9-1.7,7.5-1.7,8.7v141.4Z"/>
    <polygon class="st0" points="1309.7 1258.9 1229.5 1258.9 1229.5 738.9 1308 738.9 1309.7 1258.9"/>
    <path class="st0" d="M863,955.3v181.5c-20.4,10.3-83.8-35.6-83.8-50.6v-130.9h83.8Z"/>
    <polygon class="st0" points="604.7 1115.8 454.6 1115.8 485.7 1041.2 569.8 1040.8 604.7 1115.8"/>
  </g>
</svg>