<?xml version="1.0" encoding="UTF-8"?>
<svg id="Layer_1" xmlns="http://www.w3.org/2000/svg" version="1.1" viewBox="0 0 100 100">
  <!-- Generator: Adobe Illustrator 29.3.1, SVG Export Plug-In . SVG Version: 2.1.0 Build 151)  -->
  <defs>
    <style>
      .st0 {
        isolation: isolate;
      }

      .st1 {
        fill: #2563eb;
      }
    </style>
  </defs>
  <g class="st0">
    <path d="M38.4,53.7c8.1-12.6,15.3-25.7,20.8-37.7h0c0,0,.1,0,.1,0h0c.7-.8,3,.9,2.4,1.7v.2h-.2c0,1.3-.1,2.7-.1,4,0,10,2.1,20.2,5.1,35.8,6.4-.7,15.4-2,16.6-2.1.3-.3-.4,1.4-1.2,1.9-1.6,1.1-9.6,1.9-15,2.4,1.7,8,3.7,15.2,5.8,23.2.1.5-1.6,2.1-2.3.9-5.8-10.1-14.1-18.9-23-23.7h-.2c-3.5-.1-6.7-.3-9.7-.5-12.9,18.5-18.9,25-24.6,23.3-.6-.6-.6-1.3,0-1.2,6,.5,13.9-11.2,21.4-22.3-16.1-1.5-23.8-5-25.8-7.8-.6-.8-.8-1.6-.8-2.3,0-1.2.7-2.2,2.1-2.4,1.1-.2,2.3-.2,3.8,0,3.6.3,13.5,2.2,24.5,6.8ZM35.9,57.5l1.6-2.4c-10.9-4.9-19.4-6-22.6-6.4-.9-.1-5.2-.3-4.2,1.9,1.4,2.4,13.3,5.8,25.2,6.8ZM40.1,56.2c-.3.5-.6,1-1,1.4,1.4,0,2.7,0,4,0l-3-1.5ZM64,57.7h0c-2.5-11.1-5.3-27.6-5.2-35.3-5.1,11.6-10.3,19.7-17.1,31.5l-.7,1c2.1,1,4.2,2.1,6.3,3.2,3.9.1,9.9-.2,16.6-.4ZM51.1,60.3c5.8,3.7,11.3,8.2,15.9,13.8l1.7,2.1c-1.5-5.5-3-10.9-4.2-16.3h-1.1c-4.8,0-9.1.4-12.4.4Z"/>
  </g>
  <circle class="st1" cx="86.1" cy="78.5" r="5.9"/>
</svg>